<svg width="64" height="64" viewBox="0 0 64 64" fill="none" xmlns="http://www.w3.org/2000/svg">
<g id="64x64">
<g id="Middle">
<path d="M40 40C40.5366 38.7569 42 31.8633 32.1817 26C22.3634 20.1367 22.1816 32 22.1816 32C31.9999 37.8633 28 40 40 40Z" fill="url(#paint0_linear_217_4864)" style=""/>
<path d="M24 24C23.2028 25.0633 22.1816 32 31.9999 37.8633C41.8182 43.7266 42 32 42 32C32.1817 26.1367 36 24 24 24Z" fill="url(#paint1_linear_217_4864)" style=""/>
</g>
<g id="Bottom" filter="url(#filter0_d_217_4864)">
<path d="M40.4997 48.4999C45.0001 43.9999 45.0003 37.9999 42.0002 31.9999L32.0001 37.9999C21.0959 43.4519 20.1 43.9498 20.0091 55.9999C20.0091 55.9999 20 57.2099 21 57.9999C21.9599 58.6782 24 57.7563 24 57.7563C37.6223 50.1172 21.5714 59.1394 40.4997 48.4999Z" fill="url(#paint2_linear_217_4864)" style=""/>
</g>
<g id="Top" filter="url(#filter1_d_217_4864)">
<path d="M23.6821 15.5004C19.1817 20.0004 19.1815 26.0004 22.1816 32.0004L32.1816 26.0004C43.0859 20.5484 44.0817 20.0505 44.1727 8.00044C44.1727 8.00044 44.18 6.79044 43 6.00044C41.9936 5.3857 40 6.34596 40 6.34596C26.7029 13.8024 42.5253 4.90873 23.6821 15.5004Z" fill="url(#paint3_linear_217_4864)" style=""/>
</g>
</g>
<defs>
<filter id="filter0_d_217_4864" x="16.0092" y="26" width="32.0818" height="34.249" filterUnits="userSpaceOnUse" color-interpolation-filters="sRGB">
<feFlood flood-opacity="0" result="BackgroundImageFix"/>
<feColorMatrix in="SourceAlpha" type="matrix" values="0 0 0 0 0 0 0 0 0 0 0 0 0 0 0 0 0 0 127 0" result="hardAlpha"/>
<feOffset dy="-2"/>
<feGaussianBlur stdDeviation="2"/>
<feComposite in2="hardAlpha" operator="out"/>
<feColorMatrix type="matrix" values="0 0 0 0 0 0 0 0 0 0 0 0 0 0 0 0 0 0 0.24 0"/>
<feBlend mode="normal" in2="BackgroundImageFix" result="effect1_dropShadow_217_4864"/>
<feBlend mode="normal" in="SourceGraphic" in2="effect1_dropShadow_217_4864" result="shape"/>
</filter>
<filter id="filter1_d_217_4864" x="16.0908" y="3.79492" width="32.0818" height="34.2051" filterUnits="userSpaceOnUse" color-interpolation-filters="sRGB">
<feFlood flood-opacity="0" result="BackgroundImageFix"/>
<feColorMatrix in="SourceAlpha" type="matrix" values="0 0 0 0 0 0 0 0 0 0 0 0 0 0 0 0 0 0 127 0" result="hardAlpha"/>
<feOffset dy="2"/>
<feGaussianBlur stdDeviation="2"/>
<feComposite in2="hardAlpha" operator="out"/>
<feColorMatrix type="matrix" values="0 0 0 0 0 0 0 0 0 0 0 0 0 0 0 0 0 0 0.24 0"/>
<feBlend mode="normal" in2="BackgroundImageFix" result="effect1_dropShadow_217_4864"/>
<feBlend mode="normal" in="SourceGraphic" in2="effect1_dropShadow_217_4864" result="shape"/>
</filter>
<linearGradient id="paint0_linear_217_4864" x1="22.0908" y1="32" x2="42.0908" y2="32" gradientUnits="userSpaceOnUse">
<stop stop-color="#7B1EE6" style="stop-color:#7B1EE6;stop-color:color(display-p3 0.4821 0.1180 0.9020);stop-opacity:1;"/>
<stop offset="1" stop-color="#E50657" style="stop-color:#E50657;stop-color:color(display-p3 0.8980 0.0235 0.3412);stop-opacity:1;"/>
</linearGradient>
<linearGradient id="paint1_linear_217_4864" x1="22.0908" y1="32" x2="42.0908" y2="32" gradientUnits="userSpaceOnUse">
<stop stop-color="#7B1EE6" style="stop-color:#7B1EE6;stop-color:color(display-p3 0.4821 0.1180 0.9020);stop-opacity:1;"/>
<stop offset="1" stop-color="#E50657" style="stop-color:#E50657;stop-color:color(display-p3 0.8980 0.0235 0.3412);stop-opacity:1;"/>
</linearGradient>
<linearGradient id="paint2_linear_217_4864" x1="42.0909" y1="32.1367" x2="20.3409" y2="59.6367" gradientUnits="userSpaceOnUse">
<stop stop-color="#E50657" style="stop-color:#E50657;stop-color:color(display-p3 0.8980 0.0235 0.3412);stop-opacity:1;"/>
<stop offset="1" stop-color="#FA9D4C" style="stop-color:#FA9D4C;stop-color:color(display-p3 0.9804 0.6157 0.2980);stop-opacity:1;"/>
</linearGradient>
<linearGradient id="paint3_linear_217_4864" x1="44.0908" y1="4.00049" x2="22.3408" y2="32.0005" gradientUnits="userSpaceOnUse">
<stop stop-color="#06A9EF" style="stop-color:#06A9EF;stop-color:color(display-p3 0.0235 0.6627 0.9373);stop-opacity:1;"/>
<stop offset="1" stop-color="#7B1EE6" style="stop-color:#7B1EE6;stop-color:color(display-p3 0.4821 0.1180 0.9020);stop-opacity:1;"/>
</linearGradient>
</defs>
</svg>
